<?xml version="1.0" encoding="UTF-8" standalone="no"?>
<!-- Created with Inkscape (http://www.inkscape.org/) -->

<svg
   xmlns:dc="http://purl.org/dc/elements/1.1/"
   xmlns:cc="http://creativecommons.org/ns#"
   xmlns:rdf="http://www.w3.org/1999/02/22-rdf-syntax-ns#"
   xmlns:svg="http://www.w3.org/2000/svg"
   xmlns="http://www.w3.org/2000/svg"
   xmlns:sodipodi="http://sodipodi.sourceforge.net/DTD/sodipodi-0.dtd"
   xmlns:inkscape="http://www.inkscape.org/namespaces/inkscape"
   width="800"
   height="600"
   id="svg2"
   version="1.1"
   inkscape:version="0.48.5 r10040"
   sodipodi:docname="Neues Dokument 1">
  <defs
     id="defs4" />
  <sodipodi:namedview
     id="base"
     pagecolor="#ffffff"
     bordercolor="#666666"
     borderopacity="1.0"
     inkscape:pageopacity="0.0"
     inkscape:pageshadow="2"
     inkscape:zoom="0.7"
     inkscape:cx="516.53576"
     inkscape:cy="253.35526"
     inkscape:document-units="px"
     inkscape:current-layer="layer1"
     showgrid="false"
     inkscape:window-width="1366"
     inkscape:window-height="666"
     inkscape:window-x="0"
     inkscape:window-y="31"
     inkscape:window-maximized="1" />
  <metadata
     id="metadata7">
    <rdf:RDF>
      <cc:Work
         rdf:about="">
        <dc:format>image/svg+xml</dc:format>
        <dc:type
           rdf:resource="http://purl.org/dc/dcmitype/StillImage" />
        <dc:title></dc:title>
      </cc:Work>
    </rdf:RDF>
  </metadata>
  <g
     inkscape:label="Ebene 1"
     inkscape:groupmode="layer"
     id="layer1"
     transform="translate(0,-452.36218)"
     style="display:inline"
     sodipodi:insensitive="true" />
  <g
     inkscape:groupmode="layer"
     id="layer2"
     inkscape:label="Vektorgrafu"
     sodipodi:insensitive="true" />
  <path
     style="fill:#000000;stroke:#000000;stroke-width:1px;stroke-linecap:butt;stroke-linejoin:miter;stroke-opacity:1"
     d="m 211.42857,368.57143 c 13.67746,0.59621 26.79134,-1.34372 38.57143,-9.28572 -12.16965,7.44936 -24.97362,10.88139 -38.57143,9.28572 z"
     id="path2997"
     inkscape:connector-curvature="0"
     sodipodi:nodetypes="ccc" />
  <path
     style="fill:#000000;stroke:#000000;stroke-width:1px;stroke-linecap:butt;stroke-linejoin:miter;stroke-opacity:1"
     d="m 248.49753,360.08877 c 39.90102,8.72705 79.80205,6.86312 119.70307,6.56599 -40.72189,-0.1365 -81.59483,0.10464 -119.70307,-6.56599 z"
     id="path2999"
     inkscape:connector-curvature="0"
     sodipodi:nodetypes="ccc" />
  <path
     style="fill:#000000;stroke:#000000;stroke-width:1px;stroke-linecap:butt;stroke-linejoin:miter;stroke-opacity:1"
     d="m 248.49753,360.08877 14.64721,-61.11423 14.14213,-63.63961 c 7.87641,-23.02381 15.70734,-46.07243 30.80966,-65.15484 24.09203,-25.46486 66.79443,-13.75508 99.50002,-14.14213 45.63159,8.4751 78.68994,37.06736 111.11678,66.67006 l 15.15229,39.39595 0,42.42641 3.03046,0 -1.51523,-46.46702 -16.16244,-36.36549 c -55.6761,-51.70504 -84.5729,-60.80665 -111.11678,-66.16499 -35.32616,3.42878 -73.79813,-12.08565 -100.51018,13.63706 -12.81769,19.98794 -22.50759,42.58238 -31.31473,65.91245 z"
     id="path3001"
     inkscape:connector-curvature="0"
     sodipodi:nodetypes="ccccccccccccccc" />
  <path
     style="fill:#000000;stroke:#000000;stroke-width:1px;stroke-linecap:butt;stroke-linejoin:miter;stroke-opacity:1"
     d="m 254.55844,333.8248 191.92899,5.55584 0,-1.51523 z"
     id="path3003"
     inkscape:connector-curvature="0" />
  <path
     style="fill:#000000;stroke:#000000;stroke-width:1px;stroke-linecap:butt;stroke-linejoin:miter;stroke-opacity:1"
     d="m 118.94546,327.51135 c 12.97986,88.93436 127.17319,52.58374 176.01908,54.80078 77.91454,0.34514 163.4244,-49.58982 243.44677,-77.27667 35.81318,-10.9296 71.3539,-21.13264 90.40865,12.6269 6.66459,9.53072 10.52746,20.92925 3.03046,39.90103 l 2.0203,-1.01015 c 7.08787,-20.80289 0.58009,-30.10176 -4.22786,-40.83895 -26.48975,-38.4981 -59.90775,-19.26084 -91.78572,-12.85715 C 454.2488,336.37335 372.59792,373.9359 295,380.71429 232.08397,380.40886 145.09941,420.95414 118.84564,327.64794 z"
     id="path3005"
     inkscape:connector-curvature="0"
     sodipodi:nodetypes="ccccccccccc" />
  <path
     style="fill:#000000;stroke:#000000;stroke-width:1px;stroke-linecap:butt;stroke-linejoin:miter;stroke-opacity:1"
     d="m 119.62491,329.47698 c 16.29442,-56.31719 119.26564,-29.85542 138.58938,-19.11984 l 1.07142,1.42857 c -27.27484,-10.35062 -122.89837,-38.83422 -140.62762,14.9313 z"
     id="path3007"
     inkscape:connector-curvature="0"
     sodipodi:nodetypes="ccccc" />
  <path
     style="fill:#000000;stroke:#000000;stroke-width:1px;stroke-linecap:butt;stroke-linejoin:miter;stroke-opacity:1"
     d="m 533.21429,385.71429 c -11.05106,-4.00857 -58.58054,3.27379 -108.92858,11.42857 -42.60867,5.67802 -81.39536,6.76967 -119.28571,6.78571 -61.63424,-3.2884 -128.15919,4.13298 -170.75761,-42.66588 l -0.86222,-0.19126 c 21.97055,35.20651 89.91492,43.73058 170.5484,43.92857 42.85648,0.11838 83.6887,-1.78749 121.78572,-6.42857 38.33995,-5.95679 82.35333,-15.69587 107.5,-12.85714 z"
     id="path3009"
     inkscape:connector-curvature="0"
     sodipodi:nodetypes="cccccccc" />
  <path
     style="fill:#000000;stroke:#000000;stroke-width:1px;stroke-linecap:butt;stroke-linejoin:miter;stroke-opacity:1"
     d="m 429.64286,398.92857 c 71.83347,-5.44535 165.30535,26.20372 201.07143,-41.07143 l 3.92857,-1.42857 c -39.76225,70.28505 -133.59657,36.48137 -207.85715,40.35714 z"
     id="path3011"
     inkscape:connector-curvature="0"
     sodipodi:nodetypes="ccccc" />
</svg>
